PathFileType	4	(X/Y/Z)	C:/Users/opensim2020/Desktop/walking_exp_matlab/subject03_walking15_straight_02.trc																																																																																																																																											
DataRate	CameraRate	NumFrames	NumMarkers	Units	OrigDataRate	OrigDataStartFrame	OrigNumFrames																																																																																																																																							
100	100	4	47	mm	100	1178	149																																																																																																																																							
Frame#	Time	LFHD			RFHD			LBHD			RBHD			C7			T10			CLAV			STRN			RBAK			LSHO			LUPA			LELB			LFRM			LWRA			LWRB			LFIN			RSHO			RUPA			RELB			RFRM			RWRA			RWRB			RFIN			LASI			RASI			LPSI			RPSI			LTHI			LKNE			LTIB			LANK			LHEE			LTOE			RTHI			RKNE			RTIB			RANK			RHEE			RTOE			*39			*40			*41			*42			*43			*44			*45			*46		
		X1	Y1	Z1	X2	Y2	Z2	X3	Y3	Z3	X4	Y4	Z4	X5	Y5	Z5	X6	Y6	Z6	X7	Y7	Z7	X8	Y8	Z8	X9	Y9	Z9	X10	Y10	Z10	X11	Y11	Z11	X12	Y12	Z12	X13	Y13	Z13	X14	Y14	Z14	X15	Y15	Z15	X16	Y16	Z16	X17	Y17	Z17	X18	Y18	Z18	X19	Y19	Z19	X20	Y20	Z20	X21	Y21	Z21	X22	Y22	Z22	X23	Y23	Z23	X24	Y24	Z24	X25	Y25	Z25	X26	Y26	Z26	X27	Y27	Z27	X28	Y28	Z28	X29	Y29	Z29	X30	Y30	Z30	X31	Y31	Z31	X32	Y32	Z32	X33	Y33	Z33	X34	Y34	Z34	X35	Y35	Z35	X36	Y36	Z36	X37	Y37	Z37	X38	Y38	Z38	X39	Y39	Z39	X40	Y40	Z40	X41	Y41	Z41	X42	Y42	Z42	X43	Y43	Z43	X44	Y44	Z44	X45	Y45	Z45	X46	Y46	Z46	X47	Y47	Z47
																																																																																																																																														
94	0.93	282.29242	1596.76001	924.32526	284.80499	1607.48096	1056.6145	152.39348	1560.24133	933.72974	159.89886	1569.94165	1063.89685	124.04052	1393.14404	996.7215	111.86621	1076.86987	996.19965	250.69583	1325.18677	996.45398	307.35648	1164.99475	984.97791	83.21516	1209.18384	1085.70703	200.92587	1362.66724	841.69006	225.68839	1173.03442	764.34064	266.54596	1059.53174	755.00732	364.71597	988.02277	781.75952	452.92126	932.05084	840.77881	443.38071	906.40814	792.21246	516.96649	880.7337	817.9599	199.08847	1342.35022	1156.79236	178.87497	1120.19824	1226.82043	180.52377	1006.04657	1238.51331	174.22426	868.72607	1240.78772	185.59222	768.18585	1205.19531	155.12416	769.57263	1251.3446	154.81578	693.44666	1236.48486	269.80661	911.98108	871.2124	296.52567	931.93597	1108.85657	114.53213	930.26819	939.47516	130.7086	951.85809	1085.46094	229.90605	605.92816	826.74817	250.15825	426.84064	841.90875	82.70533	324.67346	849.87689	-89.60939	215.89987	897.52325	-133.38141	236.96706	937.90881	-62.67609	67.98234	920.17102	300.8923	638.43231	1157.93066	358.10498	470.86444	1109.0127	318.21783	278.85919	1114.70166	276.66449	68.18795	1068.61267	225.36801	37.80743	1020.93445	413.85449	32.48653	1047.53162	203.37997	1667.38098	973.2666	NaN	NaN	NaN	NaN	NaN	NaN	NaN	NaN	NaN	NaN	NaN	NaN	NaN	NaN	NaN	NaN	NaN	NaN	NaN	NaN	NaN
95	0.94	296.58884	1598.68225	923.83386	299.40036	1609.47546	1056.16064	166.53664	1562.7616	933.52631	174.38162	1572.48938	1063.72827	137.90317	1395.4043	996.75073	125.64814	1079.13525	996.55347	264.3764	1327.35852	995.85297	321.04266	1167.19946	984.14679	97.68531	1211.59583	1086.45154	213.51433	1364.95825	841.29333	236.13358	1174.48132	764.64423	276.06149	1060.42371	755.75317	372.9469	986.58618	781.59198	460.3071	928.16998	839.5849	449.9519	903.15155	791.03125	522.90265	874.90057	816.80457	214.17032	1344.82544	1156.50781	196.77338	1122.69824	1227.2074	199.83545	1008.65863	1239.3479	196.08084	871.20453	1241.77136	208.97658	771.09961	1206.31104	179.22644	771.74695	1252.66797	181.31946	695.89374	1238.37268	283.71976	915.05292	871.34802	310.31146	933.62415	1108.89075	128.75481	932.84863	939.75696	144.69868	954.04504	1085.84778	252.6879	608.8028	827.26495	278.4942	430.70532	842.57007	112.58087	326.89624	850.36517	-57.73547	214.12576	897.3006	-103.55758	232.66916	937.53638	-23.23228	67.892	919.22882	309.66083	638.77899	1157.62036	363.4996	470.01514	1109.2002	321.16235	278.48993	1114.547	276.66888	68.42197	1068.54736	225.46951	38.15303	1020.92377	413.92361	32.4385	1047.56299	NaN	NaN	NaN	NaN	NaN	NaN	NaN	NaN	NaN	NaN	NaN	NaN	NaN	NaN	NaN	NaN	NaN	NaN	NaN	NaN	NaN	NaN	NaN	NaN
96	0.95	310.83121	1600.61609	923.36029	314.45599	1611.23291	1055.13684	180.29895	1565.48621	933.43585	188.77654	1575.05701	1063.52393	151.58	1397.67432	997.23511	139.4361	1081.46606	997.06964	277.97992	1329.59583	995.25995	334.61288	1169.40442	983.45422	112.00301	1214.08728	1087.05005	225.90588	1367.25562	840.84753	246.38689	1175.94836	764.88013	285.16931	1061.26855	756.59375	380.84225	984.92853	781.3009	467.24463	923.83606	838.34918	455.93607	899.56787	789.58295	528.01007	868.40729	815.21527	228.89101	1347.51587	1156.17505	214.53502	1125.30286	1227.67786	219.25113	1011.39795	1239.96875	218.09683	873.96899	1242.84778	232.73463	774.25311	1207.33801	203.3513	774.4447	1253.94788	208.55446	698.69501	1240.74622	297.75763	918.27618	871.66003	323.83481	935.27722	1109.04968	142.78334	935.76685	939.82446	158.39113	956.17877	1086.11206	274.81787	612.12988	827.73236	306.57928	435.12775	843.30988	142.71616	327.95584	851.00073	-24.83243	210.38795	897.2146	-72.64075	226.36111	937.27448	17.52075	66.76807	919.00348	318.65237	639.20447	1157.53772	368.61905	469.34821	1109.09778	323.79236	278.27109	1114.05347	276.76013	68.58932	1068.44531	225.61127	38.61739	1020.75519	414.00378	32.38598	1047.6062	233.80066	1668.96497	975.76373	NaN	NaN	NaN	NaN	NaN	NaN	NaN	NaN	NaN	NaN	NaN	NaN	NaN	NaN	NaN	NaN	NaN	NaN	NaN	NaN	NaN
97	0.96	325.03769	1602.5249	922.86487	328.94696	1613.0304	1054.5686	194.54131	1567.95837	932.94647	203.02623	1577.57532	1063.18066	165.33179	1399.97302	997.16547	153.18739	1083.7937	997.69238	291.5397	1331.81506	994.57819	348.0358	1171.60413	982.98279	126.16556	1216.6167	1087.57458	238.27155	1369.54932	840.37213	256.61749	1177.37769	765.1142	294.54724	1062.22009	757.23596	388.45624	983.12006	780.7619	473.72687	919.14819	836.8949	461.46286	895.73035	787.88275	532.38129	861.28827	813.21381	243.50336	1350.00952	1155.95239	232.13976	1128.00098	1228.06824	238.47592	1014.30811	1240.67908	240.19423	876.94617	1243.83972	256.78366	777.69037	1208.82385	227.66718	777.28369	1255.08948	235.56534	701.88763	1242.0127	312.13724	921.70728	872.42133	337.12317	936.85822	1109.42517	156.83992	938.6228	939.60394	171.90321	958.25726	1086.25403	296.21063	615.71747	828.17114	333.21448	439.8183	844.02686	172.98952	327.95288	851.6424	8.62061	205.05853	897.36945	-40.92828	218.0331	937.31183	60.11794	65.0414	919.32153	327.47803	639.77472	1156.77173	373.52209	468.69153	1108.80237	326.31073	278.2764	1113.74365	276.81741	68.96159	1067.88245	225.80244	39.15988	1020.50897	414.15027	32.34516	1047.60254	248.89047	1670.80957	973.50275	NaN	NaN	NaN	NaN	NaN	NaN	NaN	NaN	NaN	NaN	NaN	NaN	NaN	NaN	NaN	NaN	NaN	NaN	NaN	NaN	NaN
